<svg id="Capa_1" data-name="Capa 1" xmlns="http://www.w3.org/2000/svg" viewBox="0 0 38.06 38.06"><defs><style>.cls-1{fill:#222221;}.cls-2{fill:#fff;}</style></defs><title>iconGoogle</title><path class="cls-1" d="M19,38.06h0A19,19,0,0,1,0,19H0A19,19,0,0,1,19,0h0a19,19,0,0,1,19,19h0A19,19,0,0,1,19,38.06Z"/><path class="cls-2" d="M21.41,18.53H13.72v2.21h5.18a5.08,5.08,0,0,1-5,4.32A6,6,0,1,1,18,14.61l1.7-1.47a8.27,8.27,0,1,0-5.8,14.16c4.38,0,7.55-3.35,7.55-7.91Z"/><polygon class="cls-2" points="32.46 18.63 29.29 18.63 29.29 15.45 27.26 15.45 27.26 18.63 24.09 18.63 24.09 20.65 27.26 20.65 27.26 23.82 29.29 23.82 29.29 20.65 32.46 20.65 32.46 18.63"/></svg>