<svg id="Capa_1" data-name="Capa 1" xmlns="http://www.w3.org/2000/svg" viewBox="0 0 38.06 38.06"><defs><style>.cls-1{fill:#222221;}.cls-2{fill:#fff;}</style></defs><title>iconBehance</title><rect class="cls-1" width="38.06" height="38.06" rx="19.03"/><path class="cls-2" d="M16.19,25.34a3.76,3.76,0,0,0,1.51-.66,4,4,0,0,0,1.53-3.18,3.51,3.51,0,0,0-.52-1.95,3,3,0,0,0-1.54-1.18,3.14,3.14,0,0,0,1-.75,3,3,0,0,0,.62-2,3.44,3.44,0,0,0-.61-2,4.09,4.09,0,0,0-3.46-1.42H8.3V25.53h6A8.62,8.62,0,0,0,16.19,25.34ZM11,14.51h2.9a4.92,4.92,0,0,1,1.57.21A1.19,1.19,0,0,1,16.15,16a1.26,1.26,0,0,1-.54,1.17,2.68,2.68,0,0,1-1.41.33H11Zm0,8.7V19.66h3.28a3.33,3.33,0,0,1,1.33.22,1.43,1.43,0,0,1,.85,1.43A1.68,1.68,0,0,1,15.54,23a3.23,3.23,0,0,1-1.34.23Z"/><path class="cls-2" d="M21.49,24.65A5.36,5.36,0,0,0,25,25.86a4.8,4.8,0,0,0,3.71-1.44,3.23,3.23,0,0,0,.95-1.78H27a2.09,2.09,0,0,1-.53.68,2.19,2.19,0,0,1-1.43.45,2.59,2.59,0,0,1-1.42-.37,2.36,2.36,0,0,1-1-2.08h7.18a12.63,12.63,0,0,0-.09-1.95,4.83,4.83,0,0,0-.78-2,4.07,4.07,0,0,0-1.71-1.46,5.54,5.54,0,0,0-2.31-.46,4.77,4.77,0,0,0-3.53,1.37A5.35,5.35,0,0,0,20,20.7,4.8,4.8,0,0,0,21.49,24.65Zm1.84-6.55a2,2,0,0,1,1.54-.57,2.24,2.24,0,0,1,1.53.54,2.11,2.11,0,0,1,.68,1.55H22.64A2.72,2.72,0,0,1,23.33,18.1Z"/><rect class="cls-2" x="21.8" y="12.97" width="5.79" height="1.34"/></svg>