<svg id="Capa_1" data-name="Capa 1" xmlns="http://www.w3.org/2000/svg" viewBox="0 0 38.06 38.06"><defs><style>.cls-1{fill:#222221;}.cls-2{fill:#fff;}</style></defs><title>iconTelegram</title><path class="cls-1" d="M19,38.06h0A19,19,0,0,1,0,19H0A19,19,0,0,1,19,0h0a19,19,0,0,1,19,19h0A19,19,0,0,1,19,38.06Z"/><path class="cls-2" d="M14.76,24.66a6.28,6.28,0,0,0,.31,2.25,3.92,3.92,0,0,0,1.11,1.47,5.69,5.69,0,0,0,1.94,1.07,8.37,8.37,0,0,0,2.62.37,11,11,0,0,0,2.42-.26,12.65,12.65,0,0,0,2.5-.91v-3.4a5.88,5.88,0,0,1-3.26,1.07,3.05,3.05,0,0,1-1.63-.43A1.64,1.64,0,0,1,20,25a8.52,8.52,0,0,1-.2-2.41V17.09H25V13.71H19.83V8.24H16.77A8.6,8.6,0,0,1,16,11a6.11,6.11,0,0,1-1.45,1.85A6.57,6.57,0,0,1,12.4,14v3.07h2.36Z"/></svg>